<?xml version="1.0" encoding="utf-8"?>
<svg width="0.25in" height="0.213in" viewBox="60 45 20 20" xmlns="http://www.w3.org/2000/svg" xmlns:bx="https://boxy-svg.com">
  <path id="Tent" stroke="black" stroke-width="1" d="M 69.703 49.414 C 69.703 49.414 69.979 49.838 69.979 49.838 C 69.979 49.838 70.318 50.389 70.318 50.389 C 70.318 50.389 70.953 49.456 70.953 49.456 C 71.101 49.507 71.204 49.654 71.335 49.753 C 71.335 49.753 71.13 50.071 71.13 50.071 C 71.13 50.071 70.798 50.58 70.798 50.58 C 70.747 50.657 70.619 50.804 70.646 50.898 C 70.658 50.94 70.766 51.104 70.796 51.152 C 70.796 51.152 71.13 51.682 71.13 51.682 C 71.13 51.682 72.182 53.356 72.182 53.356 C 72.182 53.356 75.607 58.803 75.607 58.803 C 75.607 58.803 76.642 60.456 76.642 60.456 C 76.642 60.456 76.844 60.774 76.844 60.774 C 76.878 60.828 76.922 60.912 76.976 60.943 C 77.024 60.97 77.109 60.966 77.163 60.965 C 77.163 60.965 77.46 60.944 77.46 60.944 C 77.46 60.944 78.011 60.944 78.011 60.944 C 78.011 60.944 78.011 61.452 78.011 61.452 C 78.011 61.452 73.815 61.452 73.815 61.452 C 73.815 61.452 71.716 61.452 71.716 61.452 C 71.716 61.452 71.398 61.474 71.398 61.474 C 71.398 61.474 62.624 61.474 62.624 61.474 C 62.624 61.474 62.624 60.965 62.624 60.965 C 62.624 60.965 63.514 60.965 63.514 60.965 C 63.567 60.965 63.635 60.969 63.682 60.943 C 63.762 60.899 63.954 60.554 64.016 60.456 C 64.016 60.456 65.044 58.824 65.044 58.824 C 65.044 58.824 68.525 53.293 68.525 53.293 C 68.525 53.293 69.606 51.576 69.606 51.576 C 69.606 51.576 69.914 51.088 69.914 51.088 C 69.914 51.088 70.05 50.861 70.05 50.861 C 70.074 50.781 69.92 50.605 69.873 50.537 C 69.873 50.537 69.526 50.029 69.526 50.029 C 69.452 49.92 69.374 49.841 69.343 49.711 C 69.343 49.711 69.703 49.414 69.703 49.414 Z M 70.381 56.239 C 70.381 56.239 70.339 56.239 70.339 56.239 C 70.339 56.239 69.463 57.595 69.463 57.595 C 69.463 57.595 68.346 59.333 68.346 59.333 C 68.346 59.333 67.675 60.371 67.675 60.371 C 67.675 60.371 67.35 60.901 67.35 60.901 C 67.35 60.901 70.741 60.901 70.741 60.901 C 70.741 60.901 71.059 60.88 71.059 60.88 C 71.059 60.88 73.242 60.88 73.242 60.88 C 73.242 60.88 72.544 59.736 72.544 59.736 C 72.544 59.736 71.135 57.468 71.135 57.468 C 71.135 57.468 70.381 56.239 70.381 56.239 Z" style="" bx:origin="0 -0.000001"/>
</svg>